<?xml version="1.0" encoding="UTF-8" standalone="no"?>
<svg
   class="img-fluid"
   id="outputsvg"
   style="transform: none; transform-origin: 50% 50%; cursor: move;"
   width="800"
   height="800"
   viewBox="0 0 8000 8000"
   version="1.1"
   sodipodi:docname="image.svg"
   inkscape:version="1.1.2 (0a00cf5339, 2022-02-04)"
   xmlns:inkscape="http://www.inkscape.org/namespaces/inkscape"
   xmlns:sodipodi="http://sodipodi.sourceforge.net/DTD/sodipodi-0.dtd"
   xmlns="http://www.w3.org/2000/svg"
   xmlns:svg="http://www.w3.org/2000/svg">
  <defs
     id="defs23" />
  <sodipodi:namedview
     id="namedview21"
     pagecolor="#ffffff"
     bordercolor="#666666"
     borderopacity="1.0"
     inkscape:pageshadow="2"
     inkscape:pageopacity="0.0"
     inkscape:pagecheckerboard="0"
     showgrid="false"
     inkscape:zoom="0.526875"
     inkscape:cx="619.69158"
     inkscape:cy="458.36299"
     inkscape:window-width="1920"
     inkscape:window-height="1011"
     inkscape:window-x="0"
     inkscape:window-y="0"
     inkscape:window-maximized="1"
     inkscape:current-layer="outputsvg" />
  <g
     id="outer"
     style="fill:#272c5f">
    <path
       id="outer_down"
       d="m 3153,6230 c -212,-22 -480,-98 -663,-190 -589,-295 -995,-871 -1120,-1588 -84,-483 -22,-1042 161,-1451 l 31,-71 27,19 c 14,10 88,61 163,115 l 137,97 -21,52 c -42,105 -88,273 -115,422 -26,145 -26,586 0,730 80,434 249,763 530,1032 201,191 405,299 699,366 90,20 119,21 958,25 606,2 893,0 957,-8 125,-15 298,-62 405,-109 l 88,-39 108,76 c 59,43 138,97 175,122 36,25 67,50 67,56 0,12 -94,74 -200,132 -148,81 -357,153 -562,193 -111,22 -127,23 -928,25 -448,1 -852,-2 -897,-6 z" />
    <path
       id="outer_up"
       d="m 6406,5062 c -3,-5 -68,-53 -145,-107 -78,-54 -145,-103 -151,-110 -7,-9 0,-41 25,-109 42,-116 77,-254 101,-401 28,-167 25,-535 -5,-705 -53,-299 -150,-550 -298,-775 -79,-118 -260,-305 -373,-384 -195,-136 -410,-221 -636,-251 -101,-13 -1761,-14 -1850,-1 -139,21 -309,70 -418,121 -36,17 -54,21 -71,14 -40,-15 -334,-228 -335,-242 0,-18 124,-95 263,-163 148,-71 293,-119 469,-156 l 133,-28 h 870 c 802,0 878,1 970,18 431,80 772,261 1071,568 310,321 511,734 595,1229 21,120 23,168 23,425 0,259 -2,304 -23,420 -38,216 -86,384 -159,557 -36,85 -45,98 -56,80 z" />
  </g>
  <g
     id="middle"
     style="fill:#272c5f">
    <path
       id="middle_down"
       d="m 3470,5460 c -221,-19 -456,-104 -629,-227 -286,-205 -498,-558 -560,-933 -37,-218 -35,-429 4,-631 15,-75 43,-178 51,-188 3,-4 331,226 338,237 2,4 -2,41 -10,82 -28,159 -12,406 38,575 83,283 300,532 547,628 140,54 187,58 751,57 283,-1 528,-2 543,-3 23,-2 73,28 222,133 107,74 194,140 194,146 1,15 -179,79 -299,105 -100,22 -126,23 -600,25 -272,1 -538,-2 -590,-6 z" />
    <path
       id="middle_up"
       d="m 5477,4402 c -163,-113 -168,-118 -162,-147 62,-325 -4,-686 -168,-930 -146,-217 -357,-347 -617,-380 -133,-17 -930,-21 -1040,-5 -76,11 -51,24 -302,-154 -87,-61 -158,-116 -158,-122 0,-19 173,-82 310,-111 77,-16 142,-18 655,-18 551,0 573,1 667,22 131,30 204,56 312,110 273,137 461,333 602,628 63,130 94,222 125,371 21,96 24,137 24,334 0,179 -4,242 -18,310 -20,95 -47,191 -56,202 -4,4 -82,-45 -174,-110 z" />
  </g>
  <g
     id="inner"
     style="fill:#272c5f">
    <path
       id="inner_down"
       d="m 3630,4667 c -95,-29 -142,-54 -214,-113 -144,-117 -231,-301 -243,-513 -7,-114 11,-235 34,-227 13,5 864,602 970,680 23,17 84,60 135,96 l 92,64 -44,15 c -35,12 -112,16 -350,18 -293,2 -308,2 -380,-20 z" />
    <path
       id="inner_up"
       d="m 4229,3802 c -301,-213 -568,-402 -594,-420 -26,-18 -45,-35 -43,-38 3,-2 31,-11 62,-19 44,-12 123,-15 346,-15 h 289 l 87,29 c 211,71 353,232 415,470 31,122 27,368 -6,377 -6,1 -256,-172 -556,-384 z" />
  </g>
  <path
     id="bar_2"
     d="m 6880,6336 c -8,-7 -98,-72 -200,-143 -102,-71 -338,-237 -525,-369 -187,-132 -401,-283 -475,-336 -74,-52 -283,-200 -465,-328 -381,-270 -414,-293 -538,-380 -51,-36 -119,-83 -150,-105 -31,-22 -56,-43 -54,-46 1,-4 31,-28 67,-55 79,-60 150,-146 197,-239 19,-38 37,-72 38,-73 4,-4 42,22 310,212 461,325 461,325 625,441 69,49 148,104 175,123 63,45 353,249 510,361 66,46 194,137 285,201 91,64 221,156 290,205 69,49 144,102 168,117 23,16 42,32 42,34 0,11 -272,394 -280,394 -3,0 -12,-6 -20,-14 z"
     style="fill:#e43b15" />
  <path
     id="bar_1"
     d="m 3102,3668 c -56,-40 -141,-100 -189,-134 -49,-33 -198,-138 -333,-234 -135,-95 -306,-216 -380,-268 -74,-53 -153,-109 -175,-124 -22,-16 -115,-82 -206,-146 -91,-64 -244,-172 -340,-240 -535,-378 -645,-455 -657,-460 -8,-3 -12,-14 -10,-26 5,-21 249,-369 268,-381 5,-3 38,15 72,40 66,49 198,142 476,338 92,65 331,234 532,376 201,141 464,327 585,412 461,325 711,502 743,526 l 33,25 -69,48 c -85,59 -151,140 -200,242 -20,43 -39,78 -42,78 -3,0 -52,-33 -108,-72 z"
     style="fill:#e43b15" />
</svg>
